<svg width="32" height="32" viewBox="0 0 32 32" fill="none" xmlns="http://www.w3.org/2000/svg">
<rect width="32" height="32" fill="white"/>
<path d="M15.9609 6C10.4555 6 6 10.4551 6 15.9609C6 21.4256 10.415 26 15.9609 26C21.4548 26 26 21.4721 26 15.9609C26 10.409 21.4196 6 15.9609 6ZM15.9609 24.8359C11.1146 24.8359 7.16406 20.8503 7.16406 15.9609C7.16406 11.1146 11.1146 7.16406 15.9609 7.16406C20.8503 7.16406 24.8359 11.1146 24.8359 15.9609C24.8359 20.8503 20.8503 24.8359 15.9609 24.8359Z" fill="#5C6670"/>
<path d="M15.9609 9.51562C12.407 9.51562 9.51562 12.407 9.51562 15.9609C9.51562 19.5282 12.4011 22.4844 15.9609 22.4844C17.4013 22.4844 18.8584 22.0003 19.9586 21.1562C20.2153 20.9592 20.2638 20.5914 20.0668 20.3346C19.8698 20.0779 19.5019 20.0295 19.2452 20.2264C18.3456 20.9166 17.1486 21.3203 15.9609 21.3203C13.0532 21.3203 10.6875 18.9118 10.6875 15.9609C10.6875 13.0532 13.0532 10.6797 15.9609 10.6797C18.9118 10.6797 21.3125 13.0532 21.3125 15.9609V16.5469C21.3125 17.193 20.7868 17.7188 20.1406 17.7188C19.4945 17.7188 18.9688 17.193 18.9688 16.5469C18.9688 16.2566 18.9688 13.9233 18.9688 13.6172C18.9688 13.2936 18.7064 13.0312 18.3828 13.0312C18.0592 13.0312 17.7969 13.2936 17.7969 13.6172V13.6543C17.2677 13.2509 16.6277 13.0312 15.9609 13.0312C14.3455 13.0312 13.0312 14.3455 13.0312 15.9609C13.0312 17.5764 14.3455 18.8906 15.9609 18.8906C16.8368 18.8906 17.6429 18.5148 18.2162 17.8823C18.64 18.4911 19.3443 18.8906 20.1406 18.8906C21.433 18.8906 22.4844 17.8392 22.4844 16.5469V15.9609C22.4844 12.3963 19.5238 9.51562 15.9609 9.51562ZM15.9609 17.7266C14.9917 17.7266 14.2031 16.9302 14.2031 15.9609C14.2031 14.9917 14.9917 14.1953 15.9609 14.1953C16.9561 14.1953 17.7969 15.0081 17.7969 15.9609C17.7969 16.9138 16.9561 17.7266 15.9609 17.7266Z" fill="#5C6670"/>
</svg>
