<svg width="32" height="32" viewBox="0 0 32 32" fill="none" xmlns="http://www.w3.org/2000/svg">
<rect width="32" height="32" fill="white"/>
<path d="M25.2041 12.1477C23.6513 8.50895 20.0431 6 15.9609 6C10.409 6 6 10.5804 6 16.0391C6 21.5445 10.455 26 15.9609 26C21.4256 26 26 21.5848 26 16.0391C26 14.6947 25.7322 13.3855 25.2041 12.1477ZM24.3109 13.0548C23.2846 12.2425 21.9584 11.6758 20.6886 11.3151C20.3281 10.044 19.7625 8.71758 18.9435 7.68848C21.4369 8.5818 23.4171 10.5617 24.3109 13.0548ZM20.7336 15.4535C21.0534 15.4573 21.3125 15.7183 21.3125 16.0391C21.3125 16.3598 21.0534 16.6208 20.7336 16.6246C20.7313 16.6245 20.7291 16.624 20.7268 16.6239C20.717 16.6233 20.7074 16.6237 20.6977 16.6236C20.3882 16.6084 20.1409 16.3526 20.1407 16.0395C20.1407 16.0393 20.1407 16.0392 20.1407 16.0391C20.1407 16.0389 20.1407 16.0388 20.1407 16.0387C20.1409 15.7295 20.3818 15.4763 20.6857 15.4552C20.6871 15.4552 20.6885 15.4554 20.6899 15.4554C20.7021 15.4554 20.7145 15.455 20.7268 15.4542C20.7291 15.4541 20.7313 15.4536 20.7336 15.4535ZM16.5469 7.26914C17.6698 7.64 18.6954 9.04793 19.3605 11.0016C18.4619 10.8299 17.516 10.7266 16.5469 10.6968V7.26914ZM16.5469 11.8692C17.6565 11.9053 18.7294 12.0435 19.7236 12.275C19.8812 12.9484 19.9982 13.6651 20.0671 14.4101C19.6032 14.5986 19.2376 14.9793 19.0695 15.4531H16.5469V11.8692ZM16.5469 16.625H19.0695C19.2376 17.0988 19.6033 17.4796 20.0672 17.6681C20.0016 18.383 19.8917 19.0755 19.7411 19.7316C19.0588 19.8868 18.3366 20.0001 17.5901 20.0675C17.4017 19.6035 17.0208 19.2376 16.5469 19.0695V16.625ZM12.9755 7.69891C12.5816 8.20309 12.2236 8.81187 11.9121 9.51695C11.8945 9.51645 11.8771 9.51562 11.8594 9.51562C10.7423 9.51562 9.89684 10.5536 10.1445 11.6581C9.17891 12.0234 8.3543 12.4829 7.70102 13.0078C8.59121 10.5464 10.5332 8.59148 12.9755 7.69891ZM12.4453 11.2734C12.4453 11.5965 12.1825 11.8594 11.8594 11.8594C11.5363 11.8594 11.2734 11.5965 11.2734 11.2734C11.2734 10.9504 11.5363 10.6875 11.8594 10.6875C12.1825 10.6875 12.4453 10.9504 12.4453 11.2734ZM10.7922 12.6689C10.8446 12.7091 10.8992 12.7465 10.956 12.7807C10.8128 13.6186 10.7236 14.5383 10.6966 15.4531H7.26727C7.61816 14.3663 8.9168 13.3291 10.7922 12.6689ZM10.6964 16.625C10.7248 17.5959 10.8238 18.5253 10.9839 19.3962C9.02422 18.7509 7.63309 17.7461 7.26754 16.625H10.6964ZM7.69199 19.018C8.7127 19.8192 10.0219 20.3623 11.2835 20.7102C11.684 22.1656 12.2686 23.3995 12.9832 24.3084C10.5288 23.4219 8.57887 21.4722 7.69199 19.018ZM15.375 24.7289C13.9836 24.2621 13.06 22.4001 12.6006 21.012C13.1438 21.1126 13.7055 21.1889 14.2796 21.2394C14.4425 21.7723 14.8523 22.1982 15.375 22.3836V24.7289ZM15.375 19.0695C14.9011 19.2376 14.5202 19.6034 14.3318 20.0674C13.6038 20.0013 12.9064 19.8914 12.2519 19.7443C12.0336 18.7704 11.9033 17.7174 11.8689 16.625H15.375V19.0695ZM15.375 15.4531H11.8689C11.8951 14.6164 11.9762 13.7783 12.1052 13.0137C12.6953 12.9307 13.1924 12.554 13.4429 12.0363C14.0712 11.9457 14.7182 11.8904 15.375 11.8695V15.4531ZM15.375 10.6972C14.7613 10.7155 14.1552 10.7625 13.5626 10.8381C13.4722 10.4846 13.2741 10.1741 13.0059 9.94266C13.6475 8.51293 14.4923 7.56586 15.375 7.27082V10.6972ZM15.9609 21.3125C15.6402 21.3125 15.3792 21.0534 15.3754 20.7336C15.3755 20.7313 15.376 20.7291 15.3761 20.7268C15.3767 20.7171 15.3763 20.7077 15.3764 20.6981C15.3914 20.3882 15.6475 20.1406 15.9609 20.1406C16.2744 20.1406 16.5304 20.3882 16.5454 20.6981C16.5455 20.7077 16.5452 20.7172 16.5458 20.7268C16.5459 20.7291 16.5464 20.7313 16.5465 20.7336C16.5427 21.0534 16.2817 21.3125 15.9609 21.3125ZM16.5469 24.7324V22.3836C17.0696 22.1982 17.4793 21.7723 17.6422 21.2395C18.2377 21.1872 18.8204 21.1072 19.3836 21.0014C18.9098 22.4012 17.95 24.2768 16.5469 24.7324ZM18.9667 24.3079C19.7901 23.2759 20.3481 21.957 20.7029 20.6966C21.9605 20.3476 23.2843 19.7996 24.3114 18.9954C23.4207 21.4597 21.4497 23.4184 18.9667 24.3079ZM21.0109 19.3793C21.1122 18.8419 21.1888 18.287 21.2391 17.7204C21.7722 17.5576 22.1982 17.14 22.3836 16.6172H24.7284C24.2646 17.9861 22.3918 18.9202 21.0109 19.3793ZM22.3836 15.4531C22.1982 14.9303 21.7722 14.5205 21.2392 14.3577C21.1871 13.7706 21.1069 13.1955 21.0005 12.6387C22.3993 13.1166 24.2615 14.0666 24.7284 15.4531H22.3836Z" fill="#5C6670"/>
</svg>
