<svg width="32" height="32" viewBox="0 0 32 32" fill="none" xmlns="http://www.w3.org/2000/svg">
<rect width="32" height="32" fill="white"/>
<path d="M25.4851 20.7513L22.9988 18.265C22.3133 17.5796 21.1979 17.5796 20.5125 18.265L19.3823 19.3951C18.863 19.9144 18.018 19.9143 17.4989 19.3953L12.6005 14.4927C12.08 13.9722 12.0799 13.1297 12.6005 12.6091C12.7825 12.4271 13.3052 11.9044 13.7306 11.479C14.4131 10.7966 14.4226 9.68469 13.73 8.99211L11.2443 6.5143C10.5589 5.82887 9.4435 5.82887 8.75986 6.5125C8.2483 7.01961 8.0833 7.1832 7.85392 7.41059C5.38204 9.88242 5.38204 13.9044 7.85381 16.3762L15.6152 24.1417C18.0929 26.6193 22.1031 26.6195 24.5809 24.1417L25.4851 23.2375C26.1705 22.5521 26.1705 21.4368 25.4851 20.7513ZM9.58682 7.34305C9.8153 7.11457 10.187 7.11453 10.4162 7.34367L12.9019 9.82149C13.1309 10.0505 13.1309 10.4212 12.9019 10.6502L12.4874 11.0646L9.17455 7.75172L9.58682 7.34305ZM16.4441 23.313L8.68268 15.5475C6.77025 13.635 6.66513 10.6321 8.35939 8.5941L11.6627 11.8974C10.7947 12.8813 10.8309 14.3807 11.7715 15.3213L16.6698 20.2237C16.6699 20.2238 16.67 20.2238 16.67 20.2239C17.6096 21.1636 19.1089 21.2021 20.0941 20.3329L23.3974 23.6363C21.3659 25.3276 18.3697 25.2386 16.4441 23.313ZM24.6563 22.4088L24.2419 22.8232L20.9269 19.5081L21.3412 19.0938C21.5697 18.8653 21.9415 18.8652 22.17 19.0938L24.6563 21.58C24.8848 21.8086 24.8848 22.1804 24.6563 22.4088Z" fill="#5C6670"/>
</svg>
