<svg width="1120" height="1080" viewBox="0 0 1120 1080" fill="none" xmlns="http://www.w3.org/2000/svg">
<rect opacity="0.05" width="810" height="1080" rx="10" fill="black"/>
<rect opacity="0.1" x="830" y="21" width="170" height="16" rx="5" fill="black"/>
<rect opacity="0.05" x="830" y="58" width="250" height="16" rx="5" fill="black"/>
<rect opacity="0.1" x="830" y="234" width="210" height="16" rx="5" fill="black"/>
<rect opacity="0.05" x="830" y="271" width="190" height="16" rx="5" fill="black"/>
<rect opacity="0.05" x="830" y="301" width="140" height="16" rx="5" fill="black"/>
<rect opacity="0.05" x="830" y="88" width="290" height="16" rx="5" fill="black"/>
<rect opacity="0.05" x="830" y="118" width="220" height="16" rx="5" fill="black"/>
<rect opacity="0.05" x="830" y="148" width="270" height="16" rx="5" fill="black"/>
<rect opacity="0.05" x="830" y="178" width="160" height="16" rx="5" fill="black"/>
<rect opacity="0.1" x="20" y="21" width="518" height="16" rx="5" fill="black"/>
<rect x="20" y="58" width="770" height="80" rx="5" fill="white"/>
<rect x="20" y="149" width="770" height="80" rx="5" fill="white"/>
<rect x="20" y="239" width="770" height="80" rx="5" fill="white"/>
<rect x="20" y="329" width="770" height="80" rx="5" fill="white"/>
<rect x="20" y="419" width="770" height="80" rx="5" fill="white"/>
<rect x="20" y="509" width="770" height="80" rx="5" fill="white"/>
<rect x="20" y="599" width="770" height="80" rx="5" fill="white"/>
<rect x="20" y="689" width="770" height="80" rx="5" fill="white"/>
<rect x="20" y="779" width="770" height="80" rx="5" fill="white"/>
<rect x="20" y="869" width="770" height="80" rx="5" fill="white"/>
<rect x="20" y="959" width="770" height="80" rx="5" fill="white"/>
</svg>
