<svg width="20" height="20" viewBox="0 0 20 20" fill="none" xmlns="http://www.w3.org/2000/svg">
<rect width="20" height="20" rx="5" fill="#4680FF"/>
<path d="M1.83617 8.9H3.22617V4.95L3.37617 4.27L2.89617 4.86L2.00617 5.47L1.45617 4.72L3.73617 2.88H4.46617V8.9H5.82617V10H1.83617V8.9ZM10.75 4.71C10.75 5.05 10.6867 5.39333 10.56 5.74C10.44 6.08667 10.2833 6.42667 10.09 6.76C9.90333 7.09333 9.69333 7.41667 9.46 7.73C9.23333 8.03667 9.01 8.32 8.79 8.58L8.26 8.99V9.04L8.98 8.9H10.9V10H6.69V9.33C6.85 9.16333 7.03 8.97 7.23 8.75C7.43 8.52333 7.63 8.28667 7.83 8.04C8.03667 7.78667 8.23667 7.52667 8.43 7.26C8.62333 6.99333 8.79667 6.72667 8.95 6.46C9.10333 6.18667 9.22333 5.92333 9.31 5.67C9.40333 5.41667 9.45 5.17667 9.45 4.95C9.45 4.67667 9.37 4.45333 9.21 4.28C9.05667 4.1 8.81 4.01 8.47 4.01C8.25667 4.01 8.03667 4.05667 7.81 4.15C7.59 4.23667 7.40333 4.35 7.25 4.49L6.73 3.57C6.99 3.35667 7.28333 3.18667 7.61 3.06C7.94333 2.92667 8.33333 2.86 8.78 2.86C9.06667 2.86 9.33 2.9 9.57 2.98C9.81 3.06 10.0167 3.17667 10.19 3.33C10.3633 3.48333 10.5 3.67667 10.6 3.91C10.7 4.13667 10.75 4.40333 10.75 4.71Z" transform="translate(4 5)" fill="white"/>
<rect width="12" height="2" rx="1" transform="translate(4 3)" fill="white"/>
</svg>
