<svg width="22" height="22" viewBox="0 0 22 22" fill="none" xmlns="http://www.w3.org/2000/svg">
<rect width="22" height="22" fill="black" fill-opacity="0"/>
<rect width="22" height="22" rx="5" fill="#4680FF"/>
<path d="M4.37279 11.15C4.37279 9.86667 4.65512 8.88033 5.21979 8.191C5.78445 7.49433 6.59112 7.146 7.63979 7.146C8.18979 7.146 8.67012 7.24133 9.08079 7.432C9.49145 7.62267 9.83245 7.894 10.1038 8.246C10.3751 8.598 10.5768 9.01967 10.7088 9.511C10.8408 10.0023 10.9068 10.5487 10.9068 11.15C10.9068 12.4333 10.6208 13.4233 10.0488 14.12C9.48412 14.8093 8.68112 15.154 7.63979 15.154C7.08245 15.154 6.59845 15.0587 6.18779 14.868C5.77712 14.6773 5.43612 14.406 5.16479 14.054C4.90079 13.702 4.70279 13.2803 4.57079 12.789C4.43879 12.2977 4.37279 11.7513 4.37279 11.15ZM5.95679 11.15C5.95679 11.5387 5.98979 11.898 6.05579 12.228C6.12179 12.5507 6.22079 12.8293 6.35279 13.064C6.49212 13.2987 6.66812 13.482 6.88079 13.614C7.09345 13.746 7.34645 13.812 7.63979 13.812C8.17512 13.812 8.58945 13.603 8.88279 13.185C9.17612 12.767 9.32279 12.0887 9.32279 11.15C9.32279 10.776 9.28979 10.4277 9.22379 10.105C9.16512 9.78233 9.06979 9.5 8.93779 9.258C8.80579 9.016 8.63345 8.829 8.42079 8.697C8.20812 8.55767 7.94779 8.488 7.63979 8.488C7.10445 8.488 6.69012 8.70433 6.39679 9.137C6.10345 9.56233 5.95679 10.2333 5.95679 11.15ZM13.3369 11.711H12.9409V15H11.4339V7.3H12.9409V10.71L13.2929 10.556L15.4159 7.3H17.1319L14.8879 10.534L14.2939 10.952L14.9099 11.381L17.4729 15H15.6139L13.3369 11.711Z" fill="white"/>
</svg>
