<svg width="24" height="24" viewBox="0 0 24 24" fill="none" xmlns="http://www.w3.org/2000/svg">
<path d="M18 8C17.724 8 17.474 8.112 17.293 8.293L10 15.586L5.707 11.293C5.526 11.112 5.276 11 5 11C4.447 11 4 11.447 4 12C4 12.276 4.112 12.526 4.293 12.707L9.293 17.707C9.474 17.888 9.724 18 10 18C10.276 18 10.526 17.888 10.707 17.707L18.707 9.707C18.888 9.526 19 9.276 19 9C19 8.447 18.553 8 18 8ZM12 0C5.373 0 0 5.373 0 12C0 18.627 5.373 24 12 24C18.627 24 24 18.627 24 12C24 5.373 18.627 0 12 0ZM12 22C6.478 22 2 17.522 2 12C2 6.478 6.478 2 12 2C17.522 2 22 6.478 22 12C22 17.522 17.522 22 12 22Z" fill="white"/>
</svg>
