<svg width="24" height="24" viewBox="0 0 24 24" fill="none" xmlns="http://www.w3.org/2000/svg">
<path d="M9 17H15C15.553 17 16 16.553 16 16C16 15.447 15.553 15 15 15H9C8.447 15 8 15.447 8 16C8 16.553 8.447 17 9 17ZM23.707 5.293L18.707 0.293C18.707 0.293 18.546 0 18 0H1C0.447 0 0 0.447 0 1V23C0 23.553 0.447 24 1 24H23C23.553 24 24 23.553 24 23V6C24 5.724 23.888 5.474 23.707 5.293ZM9 2H10V5C10 5.553 10.447 6 11 6C11.553 6 12 5.553 12 5V2H15V7H9V2ZM18 22H6V13H18V22ZM22 22H20V12C20 11.447 19.553 11 19 11H5C4.447 11 4 11.447 4 12V22H2V2H7V8C7 8.553 7.447 9 8 9H16C16.553 9 17 8.553 17 8V2H17.586L22 6.414V22ZM9 20H11C11.553 20 12 19.553 12 19C12 18.447 11.553 18 11 18H9C8.447 18 8 18.447 8 19C8 19.553 8.447 20 9 20Z" fill="white"/>
</svg>
