<svg width="22" height="22" viewBox="0 0 22 22" fill="none" xmlns="http://www.w3.org/2000/svg">
<path d="M18.3333 11C18.3333 10.6535 18.1335 10.3629 17.8493 10.2071L17.8558 10.1952L7.77242 4.69517L7.766 4.70708C7.63492 4.63558 7.49283 4.58333 7.33333 4.58333C6.82642 4.58333 6.41667 4.99308 6.41667 5.5V16.5C6.41667 17.0069 6.82642 17.4167 7.33333 17.4167C7.49283 17.4167 7.63492 17.3644 7.766 17.2929L7.77242 17.3048L17.8558 11.8048L17.8493 11.7929C18.1335 11.6371 18.3333 11.3465 18.3333 11ZM8.25 14.9554V7.04458L15.5027 11L8.25 14.9554ZM11 0C4.92525 0 0 4.92525 0 11C0 17.0748 4.92525 22 11 22C17.0748 22 22 17.0748 22 11C22 4.92525 17.0748 0 11 0ZM11 20.1667C5.93817 20.1667 1.83333 16.0618 1.83333 11C1.83333 5.93817 5.93817 1.83333 11 1.83333C16.0618 1.83333 20.1667 5.93817 20.1667 11C20.1667 16.0618 16.0618 20.1667 11 20.1667Z" fill="white"/>
</svg>
