<svg width="24" height="16" viewBox="0 0 24 16" fill="none" xmlns="http://www.w3.org/2000/svg">
<path d="M12 0C6.777 0 1.649 3.343 0 8C1.649 12.657 6.777 16 12 16C17.223 16 22.351 12.657 24 8C22.351 3.343 17.223 0 12 0ZM12 14C8.083 14 3.486 11.493 2.25 8C3.486 4.507 8.083 2 12 2C15.917 2 20.514 4.507 21.75 8C20.514 11.493 15.917 14 12 14ZM12 10C10.896 10 10 9.104 10 8C10 6.896 10.896 6 12 6C12.553 6 13.052 6.224 13.414 6.586L14.828 5.172C14.104 4.447 13.104 4 12 4C9.791 4 8 5.791 8 8C8 10.209 9.791 12 12 12C14.209 12 16 10.209 16 8H14C14 9.104 13.104 10 12 10Z" fill="white"/>
</svg>
