<svg width="24" height="24" viewBox="0 0 24 24" fill="none" xmlns="http://www.w3.org/2000/svg">
<path d="M18 11H13V6C13 5.447 12.553 5 12 5C11.447 5 11 5.447 11 6V11H6C5.447 11 5 11.447 5 12C5 12.553 5.447 13 6 13H11V18C11 18.553 11.447 19 12 19C12.553 19 13 18.553 13 18V13H18C18.553 13 19 12.553 19 12C19 11.447 18.553 11 18 11ZM12 0C5.373 0 0 5.373 0 12C0 18.627 5.373 24 12 24C18.627 24 24 18.627 24 12C24 5.373 18.627 0 12 0ZM12 22C6.478 22 2 17.522 2 12C2 6.478 6.478 2 12 2C17.522 2 22 6.478 22 12C22 17.522 17.522 22 12 22Z" fill="white"/>
</svg>
