<svg width="24" height="24" viewBox="0 0 24 24" fill="none" xmlns="http://www.w3.org/2000/svg">
<path d="M12 0C5.373 0 0 5.373 0 12C0 18.627 5.373 24 12 24C18.627 24 24 18.627 24 12C24 5.373 18.627 0 12 0ZM21.875 10.539C21.896 10.693 21.934 10.844 21.949 11H21.414L21.875 10.539ZM20.543 6.871C20.82 7.333 21.055 7.822 21.26 8.325L18.586 11H16.414L20.543 6.871ZM13 4.414L14.958 2.456C15.493 2.624 16.012 2.831 16.502 3.084L13 6.586V4.414ZM13 9.414L18.211 4.203C18.611 4.524 18.991 4.87 19.338 5.247L13.586 11H13V9.414ZM12 22C6.478 22 2 17.521 2 12C2 6.814 5.947 2.553 11 2.051V12C11 12.553 11.447 13 12 13H21.949C21.447 18.053 17.186 22 12 22Z" fill="white"/>
</svg>
