<svg width="20" height="24" viewBox="0 0 20 24" fill="none" xmlns="http://www.w3.org/2000/svg">
<path d="M13 8C12.311 8 12.143 8.485 12.143 8.485L10.032 12.003C10.021 12.003 10.011 12 10 12C8.896 12 8 12.896 8 14C8 15.104 8.896 16 10 16C11.104 16 12 15.104 12 14C12 13.649 11.902 13.324 11.743 13.038L13.857 9.515C13.857 9.515 14 9.376 14 9C14 8.447 13.552 8 13 8ZM19.707 6.707C19.707 6.707 20 6.546 20 6C20 5.447 19.552 5 19 5C18.724 5 18.474 5.112 18.293 5.293L16.854 6.731C15.768 5.707 14.459 4.918 13 4.459V1C13 0.447 12.552 0 12 0H8C7.448 0 7 0.447 7 1V4.459C2.943 5.733 0 9.522 0 14C0 19.522 4.477 24 10 24C15.523 24 20 19.522 20 14C20 11.855 19.319 9.873 18.169 8.245L19.707 6.707ZM9 2H11V4.051C10.671 4.018 10.337 4 10 4C9.662 4 9.329 4.018 9 4.051V2ZM10 22C5.582 22 2 18.418 2 14C2 9.582 5.582 6 10 6C14.418 6 18 9.582 18 14C18 18.418 14.418 22 10 22Z" fill="white"/>
</svg>
