<svg width="24" height="18" viewBox="0 0 24 18" fill="none" xmlns="http://www.w3.org/2000/svg">
<path d="M15 10H17C17.553 10 18 9.553 18 9C18 8.447 17.553 8 17 8H15C14.447 8 14 8.447 14 9C14 9.553 14.447 10 15 10ZM23 0H1C0.447 0 0 0.447 0 1V17C0 17.553 0.447 18 1 18H23C23.552 18 24 17.553 24 17V1C24 0.447 23.552 0 23 0ZM6 16H2V6H6V16ZM22 16H8V6H22V16ZM22 4H2V2H22V4ZM15 14H19C19.553 14 20 13.553 20 13C20 12.447 19.553 12 19 12H15C14.447 12 14 12.447 14 13C14 13.553 14.447 14 15 14ZM11 10C11.553 10 12 9.553 12 9C12 8.447 11.553 8 11 8C10.447 8 10 8.447 10 9C10 9.553 10.447 10 11 10ZM11 14C11.553 14 12 13.553 12 13C12 12.447 11.553 12 11 12C10.447 12 10 12.447 10 13C10 13.553 10.447 14 11 14Z" fill="white"/>
</svg>
