<?xml version="1.0" encoding="utf-8"?>
<!-- Generator: Adobe Illustrator 16.0.0, SVG Export Plug-In . SVG Version: 6.00 Build 0)  -->
<!DOCTYPE svg PUBLIC "-//W3C//DTD SVG 1.1//EN" "http://www.w3.org/Graphics/SVG/1.1/DTD/svg11.dtd">
<svg version="1.1" xmlns="http://www.w3.org/2000/svg" xmlns:xlink="http://www.w3.org/1999/xlink" x="0px" y="0px" width="24px"
	 height="24px" viewBox="0 0 24 24" enable-background="new 0 0 24 24" xml:space="preserve">
<g id="Background_xA0_Image_1_">
</g>
<g id="Row_5_1_">
	<g id="Download_big_cloud">
		<g>
			<path fill="#ffffff" d="M15,19c-0.276,0-0.526,0.112-0.707,0.293L13,20.586V11c0-0.553-0.447-1-1-1s-1,0.447-1,1v9.586
				l-1.293-1.293C9.526,19.112,9.276,19,9,19c-0.553,0-1,0.447-1,1c0,0.276,0.112,0.526,0.293,0.707l3,3
				C11.474,23.888,11.724,24,12,24s0.526-0.112,0.707-0.293l3-3C15.888,20.526,16,20.276,16,20C16,19.447,15.553,19,15,19z
				 M20.968,6.814C20.974,6.708,21,6.607,21,6.5C21,2.91,18.09,0,14.5,0c-2.238,0-4.211,1.132-5.38,2.854C8.381,2.322,7.48,2,6.5,2
				C4.015,2,2,4.015,2,6.5c0,0.332,0.041,0.654,0.11,0.967C0.829,8.566,0,10.179,0,12c0,3.313,2.687,6,6,6c0.553,0,1-0.447,1-1
				s-0.447-1-1-1c-2.209,0-4-1.791-4-4c0-1.753,1.135-3.227,2.704-3.767C4.27,7.783,4,7.174,4,6.5C4,5.119,5.119,4,6.5,4
				s2.487,1.099,2.487,2.479C8.987,7.135,10,7.146,10,6.5C10,4.015,12.015,2,14.5,2S19,4.015,19,6.5c0,0.555-0.114,1.08-0.298,1.57
				C20.575,8.404,22,10.031,22,12c0,2.209-1.791,4-4,4c-0.553,0-1,0.447-1,1s0.447,1,1,1c3.313,0,6-2.687,6-6
				C24,9.771,22.771,7.85,20.968,6.814z"/>
		</g>
	</g>
</g>
<g id="Row_4_1_">
</g>
<g id="Row_3_1_">
</g>
<g id="Row_2_1_">
</g>
<g id="Row_1_1_">
</g>
</svg>
