<svg width="24" height="24" viewBox="0 0 24 24" fill="none" xmlns="http://www.w3.org/2000/svg">
<path d="M23.707 11.293L12.707 0.293C12.526 0.112 12.276 0 12 0C11.724 0 11.474 0.112 11.293 0.293L0.293 11.293C0.112 11.474 0 11.724 0 12C0 12.553 0.447 13 1 13C1.276 13 1.526 12.888 1.707 12.707L3 11.414V23C3 23.553 3.447 24 4 24H9C9.553 24 10 23.553 10 23V16H14V23C14 23.553 14.447 24 15 24H20C20.553 24 21 23.553 21 23V11.414L22.293 12.707C22.474 12.888 22.724 13 23 13C23.553 13 24 12.553 24 12C24 11.724 23.888 11.474 23.707 11.293ZM19 22H16V15C16 14.447 15.553 14 15 14H9C8.447 14 8 14.447 8 15V22H5V9.414L12 2.414L19 9.414V22Z" fill="white"/>
</svg>
