<svg width="24" height="24" viewBox="0 0 24 24" fill="none" xmlns="http://www.w3.org/2000/svg">
<path d="M2.414 9L9.707 1.707C9.888 1.526 10 1.276 10 1C10 0.447 9.553 0 9 0C8.724 0 8.474 0.112 8.293 0.293L0.293 8.293C0.112 8.474 0 8.724 0 9C0 9.276 0.112 9.526 0.293 9.707L8.293 17.707C8.474 17.888 8.724 18 9 18C9.553 18 10 17.553 10 17C10 16.724 9.888 16.474 9.707 16.293L2.414 9ZM19 8H9C8.447 8 8 8.447 8 9C8 9.553 8.447 10 9 10H19C20.657 10 22 11.343 22 13V23C22 23.553 22.447 24 23 24C23.553 24 24 23.553 24 23V13C24 10.238 21.762 8 19 8Z" fill="white"/>
</svg>
