<svg width="10" height="10" viewBox="0 0 10 10" fill="none" xmlns="http://www.w3.org/2000/svg">
<path fill-rule="evenodd" clip-rule="evenodd" d="M0.146484 6.5105C-0.0488281 6.70581 -0.0488281 7.02222 0.146484 7.21753L0.853516 7.92456C1.04883 8.11987 1.36523 8.11987 1.56055 7.92456L4.03564 5.44971L6.51074 7.9248C6.70605 8.11987 7.02246 8.11987 7.21777 7.9248L7.9248 7.21753C8.03418 7.1084 8.08203 6.96143 8.06934 6.81885C8.05908 6.7063 8.01074 6.59668 7.9248 6.5105L5.44971 4.0354L7.9248 1.56079C8.12012 1.36548 8.12012 1.04883 7.9248 0.853516L7.21777 0.146484C7.02246 -0.0488281 6.70557 -0.0488281 6.51025 0.146484L4.03564 2.62109L1.56104 0.146484C1.36572 -0.0488281 1.04932 -0.0488281 0.854004 0.146484L0.146973 0.853516C-0.0483398 1.04883 -0.0483398 1.36548 0.146973 1.56079L2.62158 4.0354L0.146484 6.5105Z" transform="translate(0.964355 0.964355)" fill="white"/>
</svg>
