<svg width="22" height="22" viewBox="0 0 22 22" fill="none" xmlns="http://www.w3.org/2000/svg">
<rect width="22" height="22" fill="black" fill-opacity="0"/>
<rect width="22" height="22" rx="5" fill="#FB616F"/>
<path fill-rule="evenodd" clip-rule="evenodd" d="M7.11084 13.4749C6.91553 13.6702 6.91553 13.9866 7.11084 14.1819L7.81787 14.8889C8.01318 15.0842 8.32959 15.0842 8.5249 14.8889L11 12.4141L13.4751 14.8892C13.5479 14.9617 13.6372 15.0073 13.731 15.0259C13.8892 15.0571 14.0596 15.0117 14.1821 14.8892L14.8892 14.1819C15.0845 13.9866 15.0845 13.6702 14.8892 13.4749L12.4141 10.9998L14.8892 8.52515C15.0845 8.32983 15.0845 8.01318 14.8892 7.81787L14.1821 7.11084C13.9868 6.91553 13.6699 6.91553 13.4746 7.11084L11 9.58545L8.52539 7.11084C8.33008 6.91553 8.01367 6.91553 7.81836 7.11084L7.11133 7.81787C6.91602 8.01318 6.91602 8.32983 7.11133 8.52515L9.58594 10.9998L7.11084 13.4749Z" fill="white"/>
</svg>
