<svg width="16" height="17" viewBox="0 0 16 17" fill="none" xmlns="http://www.w3.org/2000/svg">
<path fill-rule="evenodd" clip-rule="evenodd" d="M6 12C8.9729 12 11.4409 9.83777 11.917 7H18C18.5522 7 19 6.55225 19 6C19 5.44775 18.5522 5 18 5H11.917C11.4409 2.16223 8.9729 0 6 0C2.68628 0 0 2.68628 0 6C0 9.31372 2.68628 12 6 12ZM6 10C8.20923 10 10 8.20911 10 6C10 3.79089 8.20923 2 6 2C3.79077 2 2 3.79089 2 6C2 8.20911 3.79077 10 6 10Z" transform="translate(6.02515 -1.96021) rotate(45)" fill="black"/>
</svg>
