<svg width="22" height="22" viewBox="0 0 22 22" fill="none" xmlns="http://www.w3.org/2000/svg">
<rect width="22" height="22" fill="black" fill-opacity="0"/>
<rect width="22" height="22" rx="5" fill="#4680FF"/>
<path fill-rule="evenodd" clip-rule="evenodd" d="M6 6.5C6 6.37817 6.04346 6.2666 6.11572 6.17993C6.17188 6.11279 6.24512 6.0603 6.3291 6.02979C6.38232 6.0105 6.43994 6 6.5 6H12.5C12.7764 6 13 6.22388 13 6.5V8H8.5C8.22363 8 8 8.22388 8 8.5V13H6.5C6.22363 13 6 12.7761 6 12.5V6.5ZM9.5 9C9.22363 9 9 9.22388 9 9.5V15.5C9 15.7761 9.22363 16 9.5 16H15.5C15.7764 16 16 15.7761 16 15.5V9.5C16 9.22388 15.7764 9 15.5 9H9.5Z" fill="white"/>
</svg>
