<svg width="14" height="23" viewBox="0 0 14 23" fill="none" xmlns="http://www.w3.org/2000/svg">
<path fill-rule="evenodd" clip-rule="evenodd" d="M2.95843 0.000197963L14.7783 1.43326e-10C15.3306 -9.2496e-06 15.7783 0.447691 15.7784 0.999971L15.7784 1.95828C15.7784 2.51058 15.3307 2.95831 14.7784 2.95831L3.95853 2.9582C3.40624 2.95819 2.95852 3.40591 2.95852 3.95819L2.95848 14.7783C2.95848 15.3306 2.51078 15.7783 1.95851 15.7783L1.00003 15.7783C0.447722 15.7783 -1.678e-05 15.3306 4.71664e-10 14.7783L0.000359122 2.95827L0.000187885 1.00023C0.000139582 0.447898 0.447887 0.0001245 1.00022 0.000140662L2.95843 0.000197963Z" transform="translate(0 11.157) rotate(-45)" fill="white"/>
</svg>
