<svg width="23" height="23" viewBox="0 0 23 23" fill="none" xmlns="http://www.w3.org/2000/svg">
<path fill-rule="evenodd" clip-rule="evenodd" d="M2.95846 0.000216041L14.7784 1.80781e-05C15.3306 8.82837e-06 15.7784 0.447709 15.7784 0.999989L15.7784 1.9583C15.7784 2.5106 15.3307 2.95833 14.7784 2.95832L3.95856 2.95821C3.40627 2.95821 2.95855 3.40592 2.95855 3.95821L2.95851 14.7783C2.95851 15.3306 2.51081 15.7783 1.95854 15.7783L1.00006 15.7783C0.447751 15.7783 1.22738e-05 15.3306 2.90543e-05 14.7783L0.000388176 2.95829L0.000216939 1.00025C0.000168636 0.447916 0.447916 0.000142578 1.00025 0.00015874L2.95846 0.000216041Z" transform="translate(22.314 11.157) rotate(135)" fill="white"/>
</svg>
