<svg width="24" height="24" viewBox="0 0 24 24" fill="none" xmlns="http://www.w3.org/2000/svg">
<path d="M20 12C20 11.622 19.782 11.305 19.472 11.135L19.479 11.122L8.479 5.122L8.472 5.135C8.329 5.057 8.174 5 8 5C7.447 5 7 5.447 7 6V18C7 18.553 7.447 19 8 19C8.174 19 8.329 18.943 8.472 18.865L8.479 18.878L19.479 12.878L19.472 12.865C19.782 12.695 20 12.378 20 12ZM9 16.315V7.685L16.912 12L9 16.315ZM12 0C5.373 0 0 5.373 0 12C0 18.627 5.373 24 12 24C18.627 24 24 18.627 24 12C24 5.373 18.627 0 12 0ZM12 22C6.478 22 2 17.522 2 12C2 6.478 6.478 2 12 2C17.522 2 22 6.478 22 12C22 17.522 17.522 22 12 22Z" fill="black"/>
</svg>
