<svg width="24" height="24" viewBox="0 0 24 24" fill="none" xmlns="http://www.w3.org/2000/svg">
<path d="M12 4C6.777 4 1.649 7.343 0 12C1.649 16.657 6.777 20 12 20C17.223 20 22.351 16.657 24 12C22.351 7.343 17.223 4 12 4ZM12 18C8.083 18 3.486 15.493 2.25 12C3.486 8.507 8.083 6 12 6C15.917 6 20.514 8.507 21.75 12C20.514 15.493 15.917 18 12 18ZM12 14C10.896 14 10 13.104 10 12C10 10.896 10.896 10 12 10C12.553 10 13.052 10.224 13.414 10.586L14.828 9.172C14.104 8.447 13.104 8 12 8C9.791 8 8 9.791 8 12C8 14.209 9.791 16 12 16C14.209 16 16 14.209 16 12H14C14 13.104 13.104 14 12 14Z" fill="black"/>
</svg>
