<svg width="24" height="24" viewBox="0 0 24 24" fill="none" xmlns="http://www.w3.org/2000/svg">
<path d="M15 13H17C17.553 13 18 12.553 18 12C18 11.447 17.553 11 17 11H15C14.447 11 14 11.447 14 12C14 12.553 14.447 13 15 13ZM23 3H1C0.447 3 0 3.447 0 4V20C0 20.553 0.447 21 1 21H23C23.552 21 24 20.553 24 20V4C24 3.447 23.552 3 23 3ZM6 19H2V9H6V19ZM22 19H8V9H22V19ZM22 7H2V5H22V7ZM15 17H19C19.553 17 20 16.553 20 16C20 15.447 19.553 15 19 15H15C14.447 15 14 15.447 14 16C14 16.553 14.447 17 15 17ZM11 13C11.553 13 12 12.553 12 12C12 11.447 11.553 11 11 11C10.447 11 10 11.447 10 12C10 12.553 10.447 13 11 13ZM11 17C11.553 17 12 16.553 12 16C12 15.447 11.553 15 11 15C10.447 15 10 15.447 10 16C10 16.553 10.447 17 11 17Z" fill="black"/>
</svg>
