<svg width="24" height="24" viewBox="0 0 24 24" fill="none" xmlns="http://www.w3.org/2000/svg">
<g clip-path="url(#clip0)">
<path d="M16.743 7.25701C16.37 6.88401 15.765 6.88401 15.392 7.25701L12.014 10.634L8.63803 7.25701C8.26503 6.88401 7.66003 6.88401 7.28703 7.25701C6.91403 7.63001 6.91403 8.23501 7.28703 8.60801L10.664 11.986L7.28703 15.363C6.91403 15.736 6.91403 16.341 7.28703 16.714C7.66003 17.087 8.26503 17.087 8.63803 16.714L12.015 13.337L15.393 16.714C15.766 17.087 16.371 17.087 16.744 16.714C17.117 16.341 17.117 15.736 16.744 15.363L13.367 11.986L16.744 8.60801C17.116 8.23401 17.116 7.63001 16.743 7.25701ZM20.485 3.51501C15.798 -1.17199 8.20103 -1.17199 3.51403 3.51501C-1.17297 8.20201 -1.17297 15.799 3.51403 20.486C8.20103 25.173 15.798 25.173 20.485 20.486C25.172 15.799 25.172 8.20101 20.485 3.51501ZM19.071 19.071C15.166 22.976 8.83403 22.976 4.92803 19.071C1.02203 15.166 1.02303 8.83401 4.92803 4.92801C8.83303 1.02201 15.165 1.02301 19.071 4.92801C22.977 8.83301 22.977 15.166 19.071 19.071Z" fill="black"/>
</g>
<defs>
<clipPath id="clip0">
<rect width="24" height="24" fill="white"/>
</clipPath>
</defs>
</svg>
