<svg width="24" height="24" viewBox="0 0 24 24" fill="none" xmlns="http://www.w3.org/2000/svg">
<path d="M1 7H20.586L17.293 10.293C17.112 10.474 17 10.724 17 11C17 11.553 17.447 12 18 12C18.276 12 18.526 11.888 18.707 11.707L23.707 6.707C23.888 6.526 24 6.276 24 6C24 5.724 23.888 5.474 23.707 5.293L18.707 0.293C18.526 0.112 18.276 0 18 0C17.447 0 17 0.447 17 1C17 1.276 17.112 1.526 17.293 1.707L20.586 5H1C0.447 5 0 5.447 0 6C0 6.553 0.447 7 1 7ZM23 17H3.414L6.707 13.707C6.888 13.526 7 13.276 7 13C7 12.447 6.553 12 6 12C5.724 12 5.474 12.112 5.293 12.293L0.293 17.293C0.112 17.474 0 17.724 0 18C0 18.276 0.112 18.526 0.293 18.707L5.293 23.707C5.474 23.888 5.724 24 6 24C6.553 24 7 23.553 7 23C7 22.724 6.888 22.474 6.707 22.293L3.414 19H23C23.553 19 24 18.553 24 18C24 17.447 23.553 17 23 17Z" fill="black"/>
</svg>
